<?xml version="1.0" encoding="UTF-8"?>
<svg version="1.1" xmlns="http://www.w3.org/2000/svg" width="1183" height="1644">
<path d="M0 0 C0.82773926 -0.00807175 1.65547852 -0.01614349 2.50830078 -0.02445984 C4.25990737 -0.03826004 6.01154039 -0.04900028 7.76318359 -0.05688477 C9.53182003 -0.06834845 11.30042342 -0.08871023 13.06884766 -0.1184082 C23.88362652 -0.29970109 33.25787972 0.08786874 43.4375 4.23828125 C44.15631348 4.52082764 44.87512695 4.80337402 45.61572266 5.09448242 C60.29612549 11.24417399 69.30816305 21.91966564 75.35302734 36.43701172 C76.97294512 40.71535198 78.3931178 45.05363385 79.80859375 49.40283203 C80.87967317 52.52875403 82.24571431 55.50178189 83.67578125 58.4765625 C85.4509457 62.58219926 85.60710002 66.48033876 85.8125 70.92578125 C86.14597411 76.11614438 86.92566438 80.40847188 88.73828125 85.25390625 C92.11507509 94.83720943 91.25305254 107.09154155 89.125 116.80078125 C88.50834347 119.64486643 88.50834347 119.64486643 88.4375 122.23828125 C90.54450146 125.51675889 90.54450146 125.51675889 93.4375 128.23828125 C96.40917307 133.76171706 96.9430218 138.73411068 95.4453125 144.80078125 C93.51764204 149.46305398 90.00639587 153.95383331 85.4375 156.23828125 C85.46070313 156.85574219 85.48390625 157.47320312 85.5078125 158.109375 C85.77159627 170.48837032 82.81751228 180.21740619 74.3515625 189.421875 C70.10674903 193.45011636 65.26830639 195.93009704 59.9375 198.23828125 C51.02602179 202.11883889 46.47257552 205.90075435 41.4375 214.23828125 C30.99980254 230.85925427 30.99980254 230.85925427 24.4375 235.23828125 C23.51195312 235.90730469 22.58640625 236.57632813 21.6328125 237.265625 C11.69905958 244.21804503 0.74043685 248.95176266 -10.5625 253.23828125 C-11.27744629 253.53774658 -11.99239258 253.83721191 -12.72900391 254.14575195 C-20.78519422 257.11637299 -29.27834213 256.72531873 -37.74755859 256.68432617 C-40.42493788 256.67582116 -43.10017441 256.70463838 -45.77734375 256.73632812 C-54.49878241 256.77031868 -61.82932254 256.37794945 -70.04931641 253.13549805 C-73.84158474 251.78164278 -77.32989836 251.75444562 -81.3125 251.92578125 C-82.00214844 251.93544922 -82.69179688 251.94511719 -83.40234375 251.95507812 C-85.46145321 251.99950544 -87.50709439 252.10944819 -89.5625 252.23828125 C-90.23861328 252.26100098 -90.91472656 252.2837207 -91.61132812 252.30712891 C-96.4212066 252.63465432 -98.9949496 254.00195835 -102.74902344 256.95507812 C-105.93513159 259.20954561 -109.49648822 260.30652213 -113.1875 261.48828125 C-114.36783813 261.87113281 -114.36783813 261.87113281 -115.57202148 262.26171875 C-132.49335183 267.49316838 -145.20112112 263.86033863 -160.58837891 256.28320312 C-166.67764608 253.06009362 -170.03053658 249.27311919 -173.25 243.30078125 C-175.07974392 240.44853337 -175.95536876 239.4243376 -179.2265625 238.421875 C-186.90952496 237.97386106 -192.74261408 240.33443902 -199.54223633 243.45385742 C-208.31374467 247.31347684 -217.56720931 248.44532612 -226.98681641 249.81079102 C-229.36129871 250.20488756 -231.63286131 250.74387578 -233.9609375 251.34765625 C-240.70184637 252.91138511 -247.63322263 252.28685242 -254.5 252.07226562 C-260.79532089 251.96175454 -264.96420942 252.3671785 -270.5625 255.23828125 C-275.14613072 256.49389095 -279.73219368 256.41689242 -284.44921875 256.44140625 C-285.30626907 256.44710632 -286.1633194 256.4528064 -287.04634094 256.4586792 C-288.85762305 256.46810422 -290.6689221 256.47465323 -292.48022461 256.47851562 C-295.22345693 256.48818766 -297.96592868 256.5192207 -300.70898438 256.55078125 C-317.71377551 256.66125555 -317.71377551 256.66125555 -325.5625 253.23828125 C-326.69953369 252.76003906 -327.83656738 252.28179687 -329.00805664 251.7890625 C-333.62127236 249.82098696 -338.19514043 247.76651003 -342.76635742 245.703125 C-344.73030377 244.81931327 -346.69880563 243.94633204 -348.66796875 243.07421875 C-350.40276489 242.29377197 -350.40276489 242.29377197 -352.17260742 241.49755859 C-357.06230811 239.68113251 -361.90182121 239.16887817 -367.0859375 238.9921875 C-367.88 238.95931641 -368.6740625 238.92644531 -369.4921875 238.89257812 C-371.11445191 238.83167842 -372.73685459 238.77435098 -374.359375 238.72070312 C-380.4833595 238.45810508 -387.00002931 238.0195166 -392.5625 235.23828125 C-392.68625 237.06359375 -392.68625 237.06359375 -392.8125 238.92578125 C-394.12347008 250.19303762 -397.66184936 261.53049401 -406.6640625 268.9765625 C-408.91132854 270.51312073 -411.20055114 271.88532026 -413.5625 273.23828125 C-414.46226562 273.79773438 -415.36203125 274.3571875 -416.2890625 274.93359375 C-423.23662791 279.23828125 -423.23662791 279.23828125 -425.5625 279.23828125 C-425.5625 279.89828125 -425.5625 280.55828125 -425.5625 281.23828125 C-425.00304687 281.37363281 -424.44359375 281.50898438 -423.8671875 281.6484375 C-418.5072831 283.08751151 -413.79770805 285.04272039 -408.875 287.61328125 C-398.32268901 293.05206783 -388.17518479 296.53983867 -376.27319336 296.85473633 C-370.97896721 297.04393193 -366.95705445 298.39180179 -362.11328125 300.38671875 C-358.56150787 301.57245626 -355.42950792 301.46283902 -351.71875 301.32421875 C-342.56677017 301.07503118 -333.16225304 301.18588003 -324.59375 304.61328125 C-321.42868328 305.58714793 -318.38695105 305.32558896 -315.10546875 305.21875 C-309.55894098 305.26135006 -304.20162089 306.78761001 -298.8828125 308.25 C-294.14657683 309.43876305 -289.41990764 309.80151314 -284.5625 310.17578125 C-273.07217192 311.17765722 -261.9847981 312.67943644 -251 316.36328125 C-244.97018611 318.34825104 -239.30191644 318.69652581 -232.98828125 318.9609375 C-229.2413708 319.26427917 -226.3826272 320.19510628 -222.921875 321.5546875 C-219.84927069 322.44492882 -216.9431512 322.53285636 -213.75 322.67578125 C-202.80285893 323.28919864 -194.26325059 326.68025282 -185.5625 333.23828125 C-184.8509375 333.7590625 -184.139375 334.27984375 -183.40625 334.81640625 C-180.6010688 336.88889087 -177.85568914 338.99138513 -175.1875 341.23828125 C-172.00572531 343.66249053 -168.63396631 345.60174178 -165.16015625 347.578125 C-162.5625 349.23828125 -162.5625 349.23828125 -159.91796875 351.63671875 C-155.77997026 355.1728987 -150.79300683 356.86949742 -145.8125 358.92578125 C-137.8967612 362.33993224 -132.27010148 365.41876284 -126.59765625 371.9765625 C-123.93149289 374.93953483 -120.94183955 376.90049758 -117.5703125 378.984375 C-115.5625 380.23828125 -115.5625 380.23828125 -113.6640625 381.80078125 C-111.09413909 383.55864708 -108.84321648 384.1137665 -105.8125 384.80078125 C-104.74515625 385.04957031 -103.6778125 385.29835938 -102.578125 385.5546875 C-101.58296875 385.78027344 -100.5878125 386.00585938 -99.5625 386.23828125 C-97.60012451 386.72171317 -95.64161967 387.21804899 -93.68359375 387.71875 C-92.03608353 388.12228381 -90.38064532 388.49350984 -88.72265625 388.8515625 C-77.28768798 391.43272179 -69.50055251 395.55326224 -62.5625 405.23828125 C-57.46218253 414.45128246 -55.74740751 424.31081033 -58.45703125 434.65234375 C-59.16435136 436.70682125 -59.90495188 438.75032674 -60.6875 440.77734375 C-61.73000483 443.27407777 -61.73000483 443.27407777 -61.5625 446.23828125 C-60.82257813 446.96402344 -60.08265625 447.68976563 -59.3203125 448.4375 C-56.09034229 451.71779552 -54.3961065 454.9361593 -52.4375 459.05078125 C-52.10363281 459.72431641 -51.76976562 460.39785156 -51.42578125 461.09179688 C-48.26220774 467.57402102 -45.69778352 474.06017753 -44.125 481.11328125 C-42.9705749 485.91834907 -41.44325766 490.33977627 -39.5234375 494.88671875 C-38.62383759 497.08817869 -37.88938175 499.27998735 -37.1875 501.55078125 C-35.98291372 505.35754011 -34.30901839 508.74406714 -32.5 512.30078125 C-30.1554711 517.23693402 -29.00020055 521.70588443 -28.5 527.11328125 C-27.40117234 538.96015024 -23.2522337 549.44065519 -17.89453125 560.04296875 C-13.81264157 569.83471583 -14.23551512 579.90175657 -14.2265625 590.30859375 C-14.22012197 592.07583724 -14.21339271 593.84307969 -14.20639038 595.61032104 C-14.19445535 599.30697089 -14.19070548 603.00352758 -14.19189453 606.70019531 C-14.1920971 611.39683269 -14.16484241 616.09286079 -14.13035011 620.78935432 C-14.10791668 624.43920539 -14.10406204 628.08891386 -14.10511398 631.73882675 C-14.10278084 633.46808844 -14.09408923 635.19735547 -14.07844925 636.926548 C-14.0106162 645.20315552 -14.14991571 652.67714653 -16.55981445 660.66992188 C-19.04002282 668.95458644 -19.11868983 676.87196646 -19.07892036 685.47599411 C-19.06608463 688.26920802 -19.07776208 691.06146323 -19.09495544 693.85464478 C-19.12142293 698.77315139 -19.12725951 703.69141524 -19.12585449 708.60998535 C-19.12360953 716.5003987 -19.13793638 724.39051425 -19.18144035 732.28081131 C-19.19120499 735.01780554 -19.18260561 737.7543189 -19.17274475 740.49130249 C-19.17889221 742.18089098 -19.18580503 743.87047692 -19.19360352 745.56005859 C-19.18588425 746.30829895 -19.17816498 747.05653931 -19.17021179 747.82745361 C-19.2162546 752.69447393 -20.15828291 756.67028936 -21.87954617 761.22405434 C-22.88710365 764.1956306 -22.97510641 767.05510177 -23.0625 770.17578125 C-23.39274644 776.32496999 -24.57747176 781.45092153 -26.5625 787.23828125 C-29.09735872 794.69457187 -30.35486036 802.0062228 -31.375 809.80078125 C-33.4791624 824.52784087 -38.01595939 836.83462909 -43.9921875 850.3671875 C-46.36917419 856.0106432 -48.1383398 861.87778744 -50.02270508 867.69897461 C-51.52305632 872.28331177 -53.08951502 876.69696917 -55.1875 881.05078125 C-60.17000637 891.49266754 -62.76873101 901.88646503 -63.82495117 913.3449707 C-64.47379731 919.79198427 -66.45660907 924.54907233 -69.6171875 930.0859375 C-70.81445996 932.81195868 -71.19461379 935.42679015 -71.6875 938.36328125 C-72.86015117 944.05238096 -74.57878895 948.87941912 -77.0625 954.11328125 C-81.07292609 962.63269603 -84.21500691 971.39978786 -87.25 980.30078125 C-87.48914124 981.00148743 -87.72828247 981.7021936 -87.97467041 982.4241333 C-90.62873184 990.23047534 -93.19296515 998.05271609 -95.4375 1005.98828125 C-97.73480529 1014.10763821 -100.71111602 1021.7621513 -104.625 1029.23828125 C-106.30647634 1032.46055265 -107.37304849 1035.70207735 -108.4375 1039.17578125 C-109.99109318 1043.99312444 -111.91218572 1047.72458191 -114.8515625 1051.8203125 C-116.92870398 1054.7558161 -118.81364605 1057.79622451 -120.6875 1060.86328125 C-121.368125 1061.97703125 -122.04875 1063.09078125 -122.75 1064.23828125 C-124.74783196 1067.5450376 -126.68620241 1070.86094559 -128.5625 1074.23828125 C-128.97628906 1074.96273438 -129.39007812 1075.6871875 -129.81640625 1076.43359375 C-132.71728478 1081.60300671 -135.32316841 1086.84681146 -137.78857422 1092.23364258 C-141.15547886 1099.57343746 -144.5711057 1105.93814815 -149.6015625 1112.30078125 C-152.13706646 1116.09898638 -153.76352855 1120.09103673 -155.5 1124.30078125 C-157.76730348 1129.784011 -159.8150062 1134.02325341 -164.125 1138.23828125 C-171.80949505 1145.89627804 -174.35126838 1157.30876966 -177.5 1167.42578125 C-179.06674839 1172.28202301 -181.17714226 1176.68149465 -183.5625 1181.17578125 C-183.89499756 1181.80315186 -184.22749512 1182.43052246 -184.57006836 1183.0769043 C-187.26610094 1188.00404478 -189.85487259 1192.09986298 -194.5625 1195.23828125 C-195.6472946 1197.17892371 -195.6472946 1197.17892371 -196.5 1199.42578125 C-198.54851039 1204.28036435 -201.02170662 1208.75643368 -203.796875 1213.2265625 C-206.34120547 1217.36467301 -208.74022944 1221.53881965 -210.9609375 1225.859375 C-211.38938965 1226.69114258 -211.8178418 1227.52291016 -212.25927734 1228.37988281 C-213.10922278 1230.04028577 -213.95110207 1231.70484993 -214.78369141 1233.37402344 C-217.16802185 1238.03165168 -219.74979314 1241.7421774 -223.25488281 1245.61401367 C-225.20638677 1248.03809056 -226.01928655 1250.60147964 -226.9375 1253.55078125 C-228.98556175 1259.33820736 -231.66836141 1263.12093461 -235.66015625 1267.71484375 C-237.72574158 1270.45481936 -238.80796708 1272.96677914 -240 1276.17578125 C-242.59294066 1282.99977034 -246.80881044 1287.79345243 -251.5625 1293.23828125 C-255.29718173 1297.94946233 -258.68886628 1302.8561748 -261.98828125 1307.87890625 C-264.20345972 1311.19892559 -266.5256823 1314.44046503 -268.8515625 1317.68359375 C-270.52723461 1320.18562471 -272.03859959 1322.74849408 -273.51367188 1325.37304688 C-274.57414449 1327.2589898 -275.65793878 1329.1299142 -276.74609375 1331 C-280.25444832 1337.08924846 -283.63101608 1343.04795876 -286.1875 1349.61328125 C-288.8286589 1356.29758409 -292.68679158 1361.80177709 -297.28515625 1367.296875 C-302.61267297 1373.71659333 -306.03851883 1380.76900443 -309.61181641 1388.24926758 C-312.38517186 1394.05166278 -315.26792 1399.53878467 -318.8125 1404.92578125 C-321.83434338 1409.53646101 -324.74203374 1414.18739794 -327.5625 1418.92578125 C-334.78407828 1430.69111392 -344.35193483 1441.04983438 -354.109375 1450.77734375 C-356.51873314 1453.194375 -358.79747854 1455.68614439 -361.0625 1458.23828125 C-364.13716564 1461.67946332 -367.29949345 1464.9752747 -370.5625 1468.23828125 C-372.26040332 1470.21916846 -373.91931485 1472.21296002 -375.5625 1474.23828125 C-377.04094742 1476.05136798 -378.52018357 1477.86381171 -380 1479.67578125 C-380.77988281 1480.64128906 -381.55976562 1481.60679688 -382.36328125 1482.6015625 C-384.07053859 1484.64845185 -385.80935919 1486.48514044 -387.6875 1488.36328125 C-392.1369754 1493.53198692 -394.1426023 1500.48869743 -396.59423828 1506.76708984 C-406.61697877 1532.34706444 -417.81631789 1556.75434047 -443.5625 1569.23828125 C-444.32949219 1569.62113281 -445.09648438 1570.00398438 -445.88671875 1570.3984375 C-450.45590646 1572.54813153 -455.20669359 1574.23336943 -459.9375 1575.98828125 C-480.36401403 1583.50390616 -480.36401403 1583.50390616 -498.5625 1595.23828125 C-506.4908308 1601.212644 -515.00015132 1604.53640124 -524.44921875 1607.44921875 C-525.10325684 1607.65474365 -525.75729492 1607.86026855 -526.43115234 1608.07202148 C-528.26808768 1608.64257425 -530.11239556 1609.18923185 -531.95703125 1609.734375 C-535.06959345 1611.03268101 -536.81774592 1612.11244505 -539.375 1614.171875 C-543.81858359 1617.66812279 -548.38357329 1619.23769912 -553.75 1620.86328125 C-555.1414624 1621.30256958 -555.1414624 1621.30256958 -556.56103516 1621.75073242 C-558.39889802 1622.32924771 -560.2386983 1622.90165127 -562.08056641 1623.46728516 C-564.16131707 1624.11365645 -566.22899064 1624.80192154 -568.29296875 1625.5 C-573.78860819 1627.33643107 -578.85269096 1628.4376537 -584.625 1628.98828125 C-593.88865289 1630.02294812 -602.03445196 1633.69568771 -610.51049805 1637.42211914 C-614.77682753 1639.11900664 -618.67214653 1639.40176327 -623.25 1639.61328125 C-628.3586925 1639.94116835 -632.59235037 1640.65910489 -637.34448719 1642.50209427 C-643.75013336 1644.62821063 -650.87876168 1644.38984583 -657.5637207 1644.39941406 C-658.41382721 1644.40437897 -659.26393372 1644.40934387 -660.13980103 1644.41445923 C-662.92263631 1644.42893787 -665.70541466 1644.435858 -668.48828125 1644.44140625 C-669.44694784 1644.44423363 -670.40561443 1644.447061 -671.39333153 1644.44997406 C-676.46461634 1644.46490688 -681.53587313 1644.47417421 -686.60717773 1644.47851562 C-691.81515164 1644.48399813 -697.02286386 1644.50803868 -702.23075581 1644.53648758 C-706.26391834 1644.55520596 -710.29701889 1644.56032439 -714.33022118 1644.5618515 C-716.24895855 1644.56485672 -718.16769539 1644.57281219 -720.08638954 1644.58603668 C-742.57899835 1644.73003208 -742.57899835 1644.73003208 -751.5625 1640.23828125 C-753.79910123 1640.08184565 -756.0401505 1639.9876791 -758.28125 1639.921875 C-758.9630835 1639.90118454 -759.64491699 1639.88049408 -760.34741211 1639.85917664 C-762.58566392 1639.79317196 -764.824046 1639.7344911 -767.0625 1639.67578125 C-768.60612353 1639.63082491 -770.14974331 1639.58573938 -771.69335938 1639.54052734 C-778.88178052 1639.34056734 -786.0581915 1639.20807753 -793.25 1639.28125 C-794.40822266 1639.29293213 -795.56644531 1639.30461426 -796.75976562 1639.31665039 C-798.8941368 1639.34678529 -801.02837833 1639.39059303 -803.16210938 1639.45092773 C-808.97562239 1639.54049302 -813.78560335 1638.89662914 -819.29101562 1636.98779297 C-823.1272758 1635.72195905 -826.54494448 1635.13545009 -830.5625 1635.42578125 C-834.73450984 1635.50214083 -838.05279899 1634.56331339 -842 1633.23828125 C-846.93018167 1631.60059359 -850.74210353 1631.04466814 -855.8828125 1631.2890625 C-862.32930709 1631.16689861 -869.26538307 1629.60561504 -875.21875 1627.13671875 C-877.6579431 1626.20169473 -879.16954895 1626.08335736 -881.75 1626.23828125 C-887.40620595 1626.37047972 -893.49141929 1625.79518949 -898.59765625 1623.20654297 C-902.87073841 1621.81103541 -906.89549655 1622.03172572 -911.359375 1622.11328125 C-912.30758118 1622.12085449 -913.25578735 1622.12842773 -914.23272705 1622.13623047 C-918.27516127 1622.16879122 -922.31718517 1622.22488278 -926.359375 1622.27929688 C-929.31768891 1622.315701 -932.27593501 1622.33974742 -935.234375 1622.36328125 C-936.13468445 1622.37987793 -937.0349939 1622.39647461 -937.96258545 1622.41357422 C-946.88436546 1622.48178577 -954.34062469 1620.64321354 -962.375 1616.86328125 C-967.09130802 1614.71379882 -971.72429629 1612.76644304 -976.6875 1611.23828125 C-986.84457011 1608.01469675 -998.65004664 1603.35983746 -1004.5 1594.05078125 C-1005.00144531 1593.26316406 -1005.50289062 1592.47554687 -1006.01953125 1591.6640625 C-1006.78330078 1590.46330078 -1006.78330078 1590.46330078 -1007.5625 1589.23828125 C-1008.60334369 1587.73771007 -1009.64499691 1586.23770005 -1010.6875 1584.73828125 C-1013.55514932 1580.4330636 -1015.63085125 1576.02428597 -1017.5625 1571.23828125 C-1017.85125 1570.61566406 -1018.14 1569.99304687 -1018.4375 1569.3515625 C-1022.73541788 1559.49527968 -1022.31240177 1549.13921855 -1018.5625 1539.23828125 C-1017.82690353 1537.96858994 -1017.82690353 1537.96858994 -1017.07644653 1536.67324829 C-1010.44416317 1524.57192854 -1011.85962538 1511.16986926 -1012.08586264 1497.76123381 C-1012.13888838 1494.16492146 -1012.1536105 1490.56846052 -1012.17166138 1486.97183228 C-1012.21961676 1478.62502554 -1012.31295484 1470.27903074 -1012.4108429 1461.93268585 C-1012.53301737 1451.30242251 -1012.6321894 1440.67205935 -1012.69483197 1430.04127562 C-1012.72138153 1425.78075413 -1012.76885971 1421.52116351 -1012.833637 1417.26105857 C-1012.87876781 1413.97544256 -1012.89771991 1410.6896386 -1012.92138672 1407.40380859 C-1012.95709778 1405.66409538 -1012.95709778 1405.66409538 -1012.99353027 1403.88923645 C-1013.0135883 1396.94345967 -1011.9730407 1391.35371029 -1009.46457958 1384.8644886 C-1008.08913552 1380.86018411 -1008.11031681 1377.14431732 -1008.27734375 1372.95703125 C-1008.29011856 1372.13682495 -1008.30289337 1371.31661865 -1008.3160553 1370.47155762 C-1008.35763657 1367.8929356 -1008.42592307 1365.31615854 -1008.5 1362.73828125 C-1008.87913514 1348.51870382 -1008.41195239 1336.45250465 -1002.1875 1323.36328125 C-998.88409255 1316.11786014 -996.04397387 1308.81281758 -993.5625 1301.23828125 C-993.19640625 1300.21476562 -992.8303125 1299.19125 -992.453125 1298.13671875 C-990.94097543 1291.51774828 -991.16541343 1284.7839448 -991.08398438 1278.01757812 C-990.8620305 1268.70092872 -989.23447806 1261.01212549 -984.875 1252.73828125 C-982.69492356 1248.12508377 -982.23054877 1244.7676491 -982.51171875 1239.72265625 C-982.61505053 1234.66734767 -981.54356722 1229.49770878 -979.53125 1224.86328125 C-978.35744571 1221.68265028 -978.13524871 1218.93814336 -977.9375 1215.55078125 C-977.87731689 1214.54700439 -977.87731689 1214.54700439 -977.81591797 1213.52294922 C-977.58154736 1208.929894 -977.55849676 1204.35626789 -977.609375 1199.7578125 C-977.62049316 1198.62110107 -977.63161133 1197.48438965 -977.64306641 1196.31323242 C-977.67209657 1194.05924747 -977.71542343 1191.805389 -977.77490234 1189.55200195 C-977.86166802 1183.41449685 -977.35262215 1178.2777253 -975.31201172 1172.47021484 C-974.02991453 1168.65232151 -973.4606851 1165.24177388 -973.75 1161.23828125 C-973.81749036 1157.3058149 -972.99743698 1154.52974279 -971.578125 1150.8828125 C-968.67831459 1141.75185037 -968.99914106 1132.54496785 -969.09594727 1123.04370117 C-969.12510355 1119.91466865 -969.11648122 1116.78731568 -969.10351562 1113.65820312 C-969.10974911 1111.64712727 -969.118137 1109.63605668 -969.12890625 1107.625 C-969.12597061 1106.70087814 -969.12303497 1105.77675629 -969.12001038 1104.82463074 C-969.20534242 1098.91531054 -970.3234914 1094.69487351 -972.5625 1089.23828125 C-974.94228873 1076.40782348 -973.55789047 1062.41259756 -973.31567383 1049.43457031 C-972.76458593 1034.69960179 -972.76458593 1034.69960179 -976.6472168 1020.69189453 C-978.51408385 1015.68735628 -978.06736483 1010.26550402 -978.0625 1004.98828125 C-978.29695408 992.05730457 -979.94115698 981.08271835 -985.61328125 969.3125 C-987.25011409 965.73571712 -988.39213589 961.98876625 -989.5625 958.23828125 C-990.43648437 958.23441406 -990.43648437 958.23441406 -991.328125 958.23046875 C-1005.62837282 957.55592876 -1019.92607151 947.35078543 -1029.5625 937.23828125 C-1030.05234375 936.73425781 -1030.5421875 936.23023438 -1031.046875 935.7109375 C-1036.98414145 929.09564988 -1043.6586682 920.41793269 -1046 911.73828125 C-1048.03502242 907.17983104 -1050.45034304 906.17285446 -1054.734375 903.85546875 C-1069.35436297 895.49542038 -1074.89889164 884.12882745 -1080.78710938 869.17041016 C-1082.03300284 866.06587588 -1083.42197697 863.03079365 -1084.8359375 860 C-1086.18134078 856.73775872 -1086.68879167 853.69656178 -1086.72363281 850.17919922 C-1086.73804413 848.99679153 -1086.73804413 848.99679153 -1086.75274658 847.79049683 C-1086.75699646 846.94568756 -1086.76124634 846.1008783 -1086.765625 845.23046875 C-1086.77417511 843.90947678 -1086.77417511 843.90947678 -1086.78289795 842.5617981 C-1086.79233575 840.69746089 -1086.79887708 838.8331071 -1086.80273438 836.96875 C-1086.81239417 834.14422646 -1086.84340991 831.32044524 -1086.875 828.49609375 C-1086.98554543 809.76030606 -1086.98554543 809.76030606 -1082.49487305 801.20410156 C-1081.0650658 798.18948833 -1080.96582658 795.1676761 -1080.625 791.86328125 C-1079.26714276 780.07997859 -1076.97296467 769.6120701 -1072.04296875 758.75390625 C-1070.07966408 754.09170518 -1068.80198598 749.33717815 -1067.484375 744.4609375 C-1066.45354041 740.85738439 -1065.13570448 737.48722673 -1063.6796875 734.0390625 C-1062.80120765 731.83671965 -1062.00993832 729.65225707 -1061.2578125 727.40625 C-1058.54309017 719.31641492 -1055.48747083 711.74477806 -1051.51782227 704.18676758 C-1049.17161442 699.65736798 -1047.38924099 695.12496863 -1045.75 690.30078125 C-1042.76958782 681.72879933 -1037.93381879 674.63973247 -1032.859375 667.17773438 C-1028.91544644 661.27966049 -1025.29245132 655.16973338 -1022.5625 648.61328125 C-1020.29686562 643.2918963 -1016.96184354 638.88728823 -1013.5625 634.23828125 C-1012.76184481 633.09678624 -1011.96380261 631.95345534 -1011.16796875 630.80859375 C-1006.81982878 624.5794033 -1002.40132127 618.63878548 -997.22265625 613.05859375 C-995.43053536 611.16337283 -995.43053536 611.16337283 -993.625 608.55078125 C-991.57575157 606.25313907 -989.78255063 605.04067133 -987.1875 603.42578125 C-983.05990859 600.8077867 -980.48960284 597.99436406 -977.75390625 593.97265625 C-976.5625 592.23828125 -976.5625 592.23828125 -974.5625 590.23828125 C-974.77209908 587.95582313 -974.77209908 587.95582313 -975.4375 585.36328125 C-977.76976777 573.59453535 -977.27107761 562.91955533 -970.8671875 552.47265625 C-963.49901514 542.5092167 -953.68814786 538.5461729 -942.125 534.98828125 C-940.00006323 534.32033472 -937.87630319 533.64862969 -935.75390625 532.97265625 C-934.36473999 532.54291504 -934.36473999 532.54291504 -932.94750977 532.10449219 C-930.34955283 531.26772833 -930.34955283 531.26772833 -927.5625 529.23828125 C-926.30366558 526.08649906 -926.30366558 526.08649906 -925.25 522.36328125 C-923.71004545 517.29921154 -921.952394 512.9522522 -919.25 508.36328125 C-915.61533389 501.42013701 -915.98177973 495.00549044 -916.46679688 487.38867188 C-916.56086591 485.27499832 -916.51269199 483.21066497 -916.421875 481.09765625 C-916.19798648 473.82309541 -916.19798648 473.82309541 -919.83203125 467.87890625 C-921.74865553 466.56794573 -923.70528448 465.31378876 -925.6953125 464.1171875 C-932.50065859 459.65755335 -935.81097804 452.72017265 -937.97363281 445.09716797 C-939.05847728 439.830365 -938.99343882 434.59597685 -938.9375 429.23828125 C-938.95490234 427.57152344 -938.95490234 427.57152344 -938.97265625 425.87109375 C-938.91051837 408.26536027 -931.00401462 392.92113853 -918.6875 380.61328125 C-912.78323752 374.90974185 -906.75544476 370.22860363 -899.5625 366.23828125 C-897.37040917 364.89155878 -895.18309627 363.53703592 -893 362.17578125 C-891.8965625 361.50546875 -890.793125 360.83515625 -889.65625 360.14453125 C-887.82112003 359.0137946 -886.00120678 357.85660186 -884.21875 356.64453125 C-875.79687316 351.06948602 -866.0923078 348.33917208 -856.5625 345.23828125 C-855.34433594 344.83351563 -854.12617187 344.42875 -852.87109375 344.01171875 C-842.68305773 340.73654643 -832.44170964 338.53051878 -821.8125 337.30078125 C-816.31211797 336.62179218 -811.72398159 335.45282886 -806.69140625 333.15625 C-804.5625 332.23828125 -804.5625 332.23828125 -801 331.55078125 C-793.65203455 328.74519444 -789.01288936 322.5383285 -785.5625 315.67578125 C-782.0273811 308.6644621 -776.80854369 304.36069443 -770.3125 300.11328125 C-767.6360402 298.2884223 -766.07281091 296.40508139 -764.10546875 293.87109375 C-762.15151289 291.80336325 -759.99059823 290.37784673 -757.625 288.80078125 C-751.44689608 284.61797608 -747.66053312 280.02496937 -743.75 273.73828125 C-737.24868104 263.98630281 -727.90976485 260.42679389 -717.4140625 256.21484375 C-713.13527993 254.49627502 -708.96789061 252.60895497 -704.8125 250.61328125 C-699.96588466 248.29620787 -695.07360607 246.2274797 -690.0625 244.30078125 C-675.58161696 238.72810174 -675.58161696 238.72810174 -663.625 229.23828125 C-655.79987406 220.69418007 -643.31871251 216.93601886 -632.625 213.30078125 C-631.76173096 213.0061499 -630.89846191 212.71151855 -630.0090332 212.40795898 C-621.91138898 209.78357087 -614.99352749 208.85865857 -606.5625 210.23828125 C-602.44377769 210.37114326 -598.57908195 210.27399558 -594.5 209.73828125 C-582.61735589 208.31976491 -570.67321435 208.30202477 -559.75390625 213.51171875 C-555.30853065 214.9855866 -550.52722222 215.28212753 -545.890625 215.80859375 C-542.5625 216.23828125 -542.5625 216.23828125 -539.5625 217.23828125 C-531.01690617 217.77393801 -521.80368367 217.74804143 -513.5625 215.23828125 C-511.16538952 212.64374352 -511.16538952 212.64374352 -509.5625 209.23828125 C-502.3034713 200.58466084 -488.86474802 193.622617 -477.5625 192.23828125 C-475.56410753 192.1479284 -473.56292747 192.10817812 -471.5625 192.11328125 C-470.551875 192.11070312 -469.54125 192.108125 -468.5 192.10546875 C-465.74535256 192.23001398 -463.24411197 192.6171726 -460.5625 193.23828125 C-460.005625 192.10390625 -459.44875 190.96953125 -458.875 189.80078125 C-452.73382825 177.56456097 -447.00762121 168.20557292 -433.5625 163.23828125 C-432.5725 163.23828125 -431.5825 163.23828125 -430.5625 163.23828125 C-431.036875 162.18640625 -431.51125 161.13453125 -432 160.05078125 C-435.88946491 151.42631558 -435.6121545 141.49563934 -432.59765625 132.6484375 C-428.54889767 123.22170526 -421.90827289 115.81541072 -412.375 111.86328125 C-405.87402574 109.44773346 -399.97299061 109.09993099 -393.10546875 109.140625 C-391.75102409 109.14274742 -391.75102409 109.14274742 -390.36921692 109.14491272 C-387.49611037 109.15049302 -384.62308284 109.16304191 -381.75 109.17578125 C-379.79752717 109.1807988 -377.84505311 109.18536126 -375.89257812 109.18945312 C-371.11585515 109.200456 -366.33919096 109.21770707 -361.5625 109.23828125 C-361.24361816 108.14708984 -360.92473633 107.05589844 -360.59619141 105.93164062 C-360.16095335 104.4816292 -359.72521724 103.03176721 -359.2890625 101.58203125 C-359.08095947 100.86499023 -358.87285645 100.14794922 -358.65844727 99.40917969 C-355.18645257 87.97971314 -347.29627241 81.61755772 -337.5625 75.23828125 C-336.54349609 74.54798828 -336.54349609 74.54798828 -335.50390625 73.84375 C-330.88645861 70.81984978 -326.00634134 68.40624195 -321.05078125 65.98828125 C-318.43377015 64.67537983 -315.86149046 63.32793491 -313.29296875 61.92578125 C-312.18103149 61.3220166 -312.18103149 61.3220166 -311.04663086 60.70605469 C-309.59428493 59.91441426 -308.1456352 59.11594133 -306.70141602 58.30957031 C-300.02264695 54.68573874 -294.01405173 53.08800432 -286.42407227 53.0637207 C-277.08372537 53.00648422 -271.27443637 50.65328117 -263.5625 45.23828125 C-261.77879176 44.16247429 -259.98744807 43.09919082 -258.1875 42.05078125 C-255.63763095 40.5304985 -253.1686646 38.96833088 -250.71875 37.2890625 C-240.18790099 30.44661729 -229.09339584 26.03176231 -216.40625 26.328125 C-210.93689489 26.36399522 -205.78435842 25.29726895 -200.4375 24.23828125 C-192.3262634 22.71410038 -184.9065524 21.97770626 -176.65234375 22.21484375 C-170.49718711 22.26153268 -165.46568753 20.6627218 -159.875 18.23828125 C-155.74658342 16.48917018 -151.94875869 15.77404574 -147.5 15.23828125 C-142.29449198 14.61022539 -138.16504305 13.57426918 -133.52734375 11.140625 C-129.21132749 9.15851813 -124.8591159 9.11864433 -120.17431641 9.140625 C-118.90173981 9.14392822 -117.62916321 9.14723145 -116.31802368 9.15063477 C-115.64197712 9.15475372 -114.96593056 9.15887268 -114.26939774 9.16311646 C-112.13095349 9.17598042 -109.99257205 9.182423 -107.85409546 9.18725586 C-102.53473691 9.20057162 -97.21543703 9.22456996 -91.89611816 9.24865723 C-87.40907477 9.26861033 -82.92205532 9.28416705 -78.43497849 9.29421997 C-76.35542206 9.30057835 -74.27596652 9.31309167 -72.19644165 9.32592773 C-59.53465858 9.35799947 -47.7628378 9.2367832 -35.69921875 5.08203125 C-31.45763797 3.941083 -27.57961122 4.12075709 -23.22265625 4.29296875 C-19.36610851 4.21368583 -16.9749482 2.97932625 -13.5625 1.23828125 C-9.09474436 0.0307934 -4.59718509 0.04317808 0 0 Z " fill="#FAC052" transform="translate(1086.5625,-0.23828125)"/>
<path d="M0 0 C0.82773926 -0.00807175 1.65547852 -0.01614349 2.50830078 -0.02445984 C4.25990737 -0.03826004 6.01154039 -0.04900028 7.76318359 -0.05688477 C9.53182003 -0.06834845 11.30042342 -0.08871023 13.06884766 -0.1184082 C23.88362652 -0.29970109 33.25787972 0.08786874 43.4375 4.23828125 C44.15631348 4.52082764 44.87512695 4.80337402 45.61572266 5.09448242 C60.29612549 11.24417399 69.30816305 21.91966564 75.35302734 36.43701172 C76.97294512 40.71535198 78.3931178 45.05363385 79.80859375 49.40283203 C80.87967317 52.52875403 82.24571431 55.50178189 83.67578125 58.4765625 C85.4509457 62.58219926 85.60710002 66.48033876 85.8125 70.92578125 C86.14597411 76.11614438 86.92566438 80.40847188 88.73828125 85.25390625 C92.11507509 94.83720943 91.25305254 107.09154155 89.125 116.80078125 C88.50834347 119.64486643 88.50834347 119.64486643 88.4375 122.23828125 C90.54450146 125.51675889 90.54450146 125.51675889 93.4375 128.23828125 C96.40917307 133.76171706 96.9430218 138.73411068 95.4453125 144.80078125 C93.51764204 149.46305398 90.00639587 153.95383331 85.4375 156.23828125 C85.46070313 156.85574219 85.48390625 157.47320312 85.5078125 158.109375 C85.77159627 170.48837032 82.81751228 180.21740619 74.3515625 189.421875 C70.10674903 193.45011636 65.26830639 195.93009704 59.9375 198.23828125 C51.02602179 202.11883889 46.47257552 205.90075435 41.4375 214.23828125 C30.99980254 230.85925427 30.99980254 230.85925427 24.4375 235.23828125 C23.51195312 235.90730469 22.58640625 236.57632813 21.6328125 237.265625 C11.69905958 244.21804503 0.74043685 248.95176266 -10.5625 253.23828125 C-11.27744629 253.53774658 -11.99239258 253.83721191 -12.72900391 254.14575195 C-20.78519422 257.11637299 -29.27834213 256.72531873 -37.74755859 256.68432617 C-40.42493788 256.67582116 -43.10017441 256.70463838 -45.77734375 256.73632812 C-54.49878241 256.77031868 -61.82932254 256.37794945 -70.04931641 253.13549805 C-73.84158474 251.78164278 -77.32989836 251.75444562 -81.3125 251.92578125 C-82.00214844 251.93544922 -82.69179688 251.94511719 -83.40234375 251.95507812 C-85.46145321 251.99950544 -87.50709439 252.10944819 -89.5625 252.23828125 C-90.23861328 252.26100098 -90.91472656 252.2837207 -91.61132812 252.30712891 C-96.4212066 252.63465432 -98.9949496 254.00195835 -102.74902344 256.95507812 C-105.93513159 259.20954561 -109.49648822 260.30652213 -113.1875 261.48828125 C-114.36783813 261.87113281 -114.36783813 261.87113281 -115.57202148 262.26171875 C-132.49335183 267.49316838 -145.20112112 263.86033863 -160.58837891 256.28320312 C-166.67764608 253.06009362 -170.03053658 249.27311919 -173.25 243.30078125 C-175.07974392 240.44853337 -175.95536876 239.4243376 -179.2265625 238.421875 C-186.90952496 237.97386106 -192.74261408 240.33443902 -199.54223633 243.45385742 C-208.31374467 247.31347684 -217.56720931 248.44532612 -226.98681641 249.81079102 C-229.36129871 250.20488756 -231.63286131 250.74387578 -233.9609375 251.34765625 C-240.70184637 252.91138511 -247.63322263 252.28685242 -254.5 252.07226562 C-260.79532089 251.96175454 -264.96420942 252.3671785 -270.5625 255.23828125 C-275.14613072 256.49389095 -279.73219368 256.41689242 -284.44921875 256.44140625 C-285.30626907 256.44710632 -286.1633194 256.4528064 -287.04634094 256.4586792 C-288.85762305 256.46810422 -290.6689221 256.47465323 -292.48022461 256.47851562 C-295.22345693 256.48818766 -297.96592868 256.5192207 -300.70898438 256.55078125 C-317.71377551 256.66125555 -317.71377551 256.66125555 -325.5625 253.23828125 C-326.69953369 252.76003906 -327.83656738 252.28179687 -329.00805664 251.7890625 C-333.62127236 249.82098696 -338.19514043 247.76651003 -342.76635742 245.703125 C-344.73030377 244.81931327 -346.69880563 243.94633204 -348.66796875 243.07421875 C-350.40276489 242.29377197 -350.40276489 242.29377197 -352.17260742 241.49755859 C-357.06230811 239.68113251 -361.90182121 239.16887817 -367.0859375 238.9921875 C-367.88 238.95931641 -368.6740625 238.92644531 -369.4921875 238.89257812 C-371.11445191 238.83167842 -372.73685459 238.77435098 -374.359375 238.72070312 C-380.4833595 238.45810508 -387.00002931 238.0195166 -392.5625 235.23828125 C-392.68625 237.06359375 -392.68625 237.06359375 -392.8125 238.92578125 C-394.12347008 250.19303762 -397.66184936 261.53049401 -406.6640625 268.9765625 C-408.91132854 270.51312073 -411.20055114 271.88532026 -413.5625 273.23828125 C-414.46226562 273.79773438 -415.36203125 274.3571875 -416.2890625 274.93359375 C-423.23662791 279.23828125 -423.23662791 279.23828125 -425.5625 279.23828125 C-425.5625 279.89828125 -425.5625 280.55828125 -425.5625 281.23828125 C-425.00304687 281.37363281 -424.44359375 281.50898438 -423.8671875 281.6484375 C-418.5072831 283.08751151 -413.79770805 285.04272039 -408.875 287.61328125 C-398.32268901 293.05206783 -388.17518479 296.53983867 -376.27319336 296.85473633 C-370.97896721 297.04393193 -366.95705445 298.39180179 -362.11328125 300.38671875 C-358.56150787 301.57245626 -355.42950792 301.46283902 -351.71875 301.32421875 C-342.56677017 301.07503118 -333.16225304 301.18588003 -324.59375 304.61328125 C-321.42868328 305.58714793 -318.38695105 305.32558896 -315.10546875 305.21875 C-309.55894098 305.26135006 -304.20162089 306.78761001 -298.8828125 308.25 C-294.14657683 309.43876305 -289.41990764 309.80151314 -284.5625 310.17578125 C-273.07217192 311.17765722 -261.9847981 312.67943644 -251 316.36328125 C-244.97018611 318.34825104 -239.30191644 318.69652581 -232.98828125 318.9609375 C-229.2413708 319.26427917 -226.3826272 320.19510628 -222.921875 321.5546875 C-219.84927069 322.44492882 -216.9431512 322.53285636 -213.75 322.67578125 C-202.80285893 323.28919864 -194.26325059 326.68025282 -185.5625 333.23828125 C-184.8509375 333.7590625 -184.139375 334.27984375 -183.40625 334.81640625 C-180.6010688 336.88889087 -177.85568914 338.99138513 -175.1875 341.23828125 C-172.00572531 343.66249053 -168.63396631 345.60174178 -165.16015625 347.578125 C-162.5625 349.23828125 -162.5625 349.23828125 -159.91796875 351.63671875 C-155.77997026 355.1728987 -150.79300683 356.86949742 -145.8125 358.92578125 C-137.8967612 362.33993224 -132.27010148 365.41876284 -126.59765625 371.9765625 C-123.93149289 374.93953483 -120.94183955 376.90049758 -117.5703125 378.984375 C-115.5625 380.23828125 -115.5625 380.23828125 -113.6640625 381.80078125 C-111.09413909 383.55864708 -108.84321648 384.1137665 -105.8125 384.80078125 C-104.74515625 385.04957031 -103.6778125 385.29835938 -102.578125 385.5546875 C-101.58296875 385.78027344 -100.5878125 386.00585938 -99.5625 386.23828125 C-97.60012451 386.72171317 -95.64161967 387.21804899 -93.68359375 387.71875 C-92.03608353 388.12228381 -90.38064532 388.49350984 -88.72265625 388.8515625 C-77.28768798 391.43272179 -69.50055251 395.55326224 -62.5625 405.23828125 C-56.94030664 415.39397736 -55.79759493 426.17369436 -59 437.42578125 C-62.6682257 447.0390624 -69.43687262 452.9221898 -78 458.17578125 C-78.59594971 458.54147217 -79.19189941 458.90716309 -79.8059082 459.28393555 C-90.50834953 465.44053831 -101.2222424 465.68437699 -113.26367188 465.74951172 C-115.29329378 465.76535314 -117.32217009 465.7983567 -119.3515625 465.83203125 C-121.14134521 465.84266602 -121.14134521 465.84266602 -122.96728516 465.85351562 C-126.00254536 466.17835401 -127.59440955 466.57943903 -130.28757668 467.73824978 C-134.38322294 469.31660531 -138.19184916 469.66242207 -142.55648804 469.62355042 C-143.31989207 469.62878611 -144.0832961 469.63402181 -144.86983359 469.63941616 C-147.40606304 469.65328963 -149.941777 469.64609883 -152.47802734 469.63891602 C-154.30532784 469.64466324 -156.13262455 469.65174795 -157.95991516 469.6600647 C-161.88475436 469.67514449 -165.80945782 469.68095492 -169.73432541 469.67953682 C-175.94630192 469.6774981 -182.15809682 469.69710441 -188.37002563 469.7197113 C-200.43844056 469.76064622 -212.50684107 469.77927817 -224.57530975 469.79588318 C-239.92951518 469.81825133 -255.28367837 469.85187639 -270.63781512 469.90308231 C-276.80687288 469.92294942 -282.97583542 469.93258033 -289.14492393 469.93403447 C-292.99020742 469.93679449 -296.83543876 469.94764589 -300.6807003 469.96054459 C-302.456765 469.96480614 -304.23284167 469.96569659 -306.00890923 469.96286964 C-319.00541405 469.56447938 -319.00541405 469.56447938 -331.5625 472.23828125 C-333.87333247 474.66581836 -333.87333247 474.66581836 -335.09375 476.515625 C-340.37404485 482.70873678 -349.11176903 486.86126664 -357.11328125 487.5390625 C-365.51515026 487.56523655 -372.4547602 487.08438502 -379.91796875 482.92578125 C-385.87609741 479.75292 -390.89967859 478.73889323 -397.5625 478.67578125 C-398.2855835 478.66135986 -399.00866699 478.64693848 -399.75366211 478.63208008 C-404.18901463 478.71290316 -407.55144244 479.54343375 -411.64453125 481.2578125 C-418.7386624 484.02530322 -425.74728761 483.67860972 -433.25 483.48828125 C-434.64515633 483.4681627 -436.04034104 483.4499215 -437.43554688 483.43359375 C-440.81194067 483.38686166 -444.18683806 483.3213548 -447.5625 483.23828125 C-447.06878906 484.21410156 -446.57507813 485.18992187 -446.06640625 486.1953125 C-445.41916469 487.4804153 -444.77203512 488.7655745 -444.125 490.05078125 C-443.79951172 490.69337891 -443.47402344 491.33597656 -443.13867188 491.99804688 C-438.87666943 500.47811359 -437.93438553 510.04488901 -440.75390625 519.28125 C-445.01392392 529.59172756 -451.74754968 537.44814673 -462.0625 541.9609375 C-471.33954159 545.39908058 -480.74598482 544.6711308 -490.5 544.36328125 C-493.27540858 544.28748075 -496.05030539 544.2195623 -498.8263092 544.16989136 C-500.53960278 544.13820535 -502.25270752 544.09133038 -503.96507263 544.02664185 C-509.0362289 543.92003121 -512.05962883 544.68099026 -516.5625 547.23828125 C-518.9050293 547.79077148 -518.9050293 547.79077148 -521.13671875 548.046875 C-521.96389404 548.15209473 -522.79106934 548.25731445 -523.64331055 548.36572266 C-524.93362183 548.51920166 -524.93362183 548.51920166 -526.25 548.67578125 C-532.9732274 549.56507452 -538.94101064 550.77620235 -545.234375 553.3984375 C-548.34317343 554.51990002 -551.30271931 554.76273682 -554.58984375 554.8671875 C-557.33551281 555.3836995 -558.63978117 556.20802781 -560.5625 558.23828125 C-560.89704396 561.03655112 -560.89704396 561.03655112 -560.5625 564.17578125 C-560.22994636 576.67425542 -565.37156526 585.37313769 -572.5625 595.23828125 C-573.26632812 596.26308594 -573.97015625 597.28789063 -574.6953125 598.34375 C-579.82758888 605.60067843 -585.46352608 610.93273232 -592.5625 616.23828125 C-593.18253906 616.74488281 -593.80257813 617.25148438 -594.44140625 617.7734375 C-600.2828911 622.46492086 -606.87150213 626.0385321 -613.34375 629.7734375 C-617.47761217 632.16742975 -621.52812327 634.68095048 -625.5625 637.23828125 C-626.45195313 637.8003125 -627.34140625 638.36234375 -628.2578125 638.94140625 C-633.30410056 642.15415556 -638.34308014 645.3780766 -643.375 648.61328125 C-643.96071777 648.98976807 -644.54643555 649.36625488 -645.14990234 649.75415039 C-648.17427715 651.69909789 -651.19627702 653.64761202 -654.21484375 655.6015625 C-656.57873847 657.13099121 -658.94698091 658.65322575 -661.3203125 660.16796875 C-663.30136069 661.43297543 -665.27682055 662.70685887 -667.2421875 663.99609375 C-671.63066635 666.78621289 -675.70465569 668.71228518 -680.6875 670.23828125 C-685.48861919 671.71602036 -688.78886405 673.54828253 -692.6328125 676.73828125 C-695.28531962 678.80014913 -698.17262151 680.21669521 -701.19140625 681.671875 C-703.43445604 683.15369208 -704.82956445 684.56283619 -706.6328125 686.52734375 C-711.03592005 691.05202216 -716.23912662 693.46573442 -721.875 696.17578125 C-732.44555965 701.27713473 -741.10985381 707.33364488 -749.125 715.92578125 C-752.98692206 719.88533618 -756.3898028 722.46487388 -761.31640625 724.87109375 C-765.15813153 727.20953522 -767.99512549 730.58113758 -771.08203125 733.81640625 C-773.98227919 736.6481444 -777.04185339 738.67494365 -780.46875 740.8046875 C-783.32639123 742.76131872 -785.56394329 745.13911028 -787.9375 747.64453125 C-790.22404477 749.887104 -792.90381999 751.46582791 -795.5625 753.23828125 C-796.91169532 754.89213358 -798.24383728 756.55998325 -799.5625 758.23828125 C-801.26306788 759.75078633 -803.00421478 761.19165307 -804.78125 762.61328125 C-806.69873417 764.26429895 -806.69873417 764.26429895 -808.42578125 766.69140625 C-810.79752052 769.51841539 -813.1102003 771.06746261 -816.25 772.98828125 C-822.14356021 776.79034631 -826.81119323 781.11239013 -831.5625 786.23828125 C-838.50170689 793.51598604 -845.49081614 798.05352442 -854.875 801.61328125 C-856.21401367 802.14501953 -856.21401367 802.14501953 -857.58007812 802.6875 C-864.12445705 805.23828125 -864.12445705 805.23828125 -867.5625 805.23828125 C-867.23636719 805.85832031 -866.91023437 806.47835937 -866.57421875 807.1171875 C-861.32504879 817.75488592 -859.90625878 828.99416715 -858.02734375 840.59375 C-857.17186403 845.46063882 -855.86792875 850.17826382 -854.5 854.92578125 C-853.58155138 858.49440985 -853.37281586 861.93713178 -853.1875 865.61328125 C-852.9219997 869.90553609 -852.38602593 873.1610299 -850.5625 877.05078125 C-847.94411708 882.78853733 -847.9388752 888.49676249 -847.73828125 894.69921875 C-847.60038268 897.4755767 -847.28681436 899.60355614 -846.5625 902.23828125 C-845.37914062 902.191875 -844.19578125 902.14546875 -842.9765625 902.09765625 C-830.08086501 901.74012474 -820.36223164 903.11439317 -810.5625 912.23828125 C-802.05060434 921.3806877 -799.91932523 931.08471461 -800.1875 943.30078125 C-800.18943359 944.98010742 -800.18943359 944.98010742 -800.19140625 946.69335938 C-800.32159573 959.02519665 -802.48710709 968.81154712 -810.8125 978.23828125 C-821.02727112 987.96477459 -835.38421344 993.68498489 -849.31640625 993.5078125 C-853.80855438 993.13481825 -857.39852176 991.93210291 -861.5625 990.23828125 C-861.65759859 1000.33231689 -860.2955507 1008.36641989 -856.00170898 1017.56420898 C-854.27390322 1021.28236827 -853.12123898 1024.1064735 -853.5625 1028.23828125 C-852.9025 1028.23828125 -852.2425 1028.23828125 -851.5625 1028.23828125 C-851.31371094 1027.49578125 -851.06492187 1026.75328125 -850.80859375 1025.98828125 C-847.59535425 1018.89699408 -839.78750866 1013.99127359 -832.78515625 1011.0859375 C-823.72396824 1008.70257047 -813.19752189 1008.83805023 -804.6953125 1012.98828125 C-795.26914418 1018.5127755 -788.08311194 1026.05541004 -784.9921875 1036.81640625 C-783.94516529 1042.71780418 -783.76800552 1048.68966757 -785.55859375 1054.43359375 C-786.85022016 1059.32870709 -786.8551504 1063.9495153 -786.9375 1068.98828125 C-787.17129455 1077.02496903 -787.83170525 1083.96323149 -791.5625 1091.23828125 C-793.00816117 1094.12960359 -792.94656667 1096.96199811 -793.25 1100.17578125 C-794.47002917 1110.46962336 -798.72787694 1118.41306819 -806.35546875 1125.515625 C-816.02990609 1133.06682299 -825.96604984 1133.44513514 -837.8125 1133.55078125 C-839.41544922 1133.59428711 -839.41544922 1133.59428711 -841.05078125 1133.63867188 C-853.30762196 1133.7354756 -861.71656763 1129.80362366 -871.25 1122.36328125 C-872.43432617 1121.46416016 -872.43432617 1121.46416016 -873.64257812 1120.546875 C-875.20876158 1119.35642063 -876.76865112 1118.15763523 -878.32177734 1116.95019531 C-879.76307367 1115.84904366 -881.22595065 1114.77529662 -882.71337891 1113.73730469 C-887.75969166 1110.19254261 -891.14002616 1106.34914345 -894.5625 1101.23828125 C-895.01334961 1100.57666992 -895.46419922 1099.91505859 -895.92871094 1099.23339844 C-905.34474174 1085.20850434 -913.6645135 1071.10841435 -919.5625 1055.23828125 C-920.03171875 1054.00722656 -920.5009375 1052.77617188 -920.984375 1051.5078125 C-921.97816579 1048.89974056 -922.94969728 1046.28457787 -923.91015625 1043.6640625 C-925.10915789 1040.40686164 -926.38347145 1037.18685726 -927.68359375 1033.96875 C-931.49342374 1024.33291751 -934.46893576 1015.68086591 -934.35083008 1005.22314453 C-934.30811758 1000.58911585 -935.15293006 997.38171003 -936.88745117 993.19433594 C-937.96109679 990.08328759 -937.82610052 987.06830664 -937.8125 983.80078125 C-938.03847968 974.35144076 -941.65417267 966.69674456 -945.5625 958.23828125 C-946.6166518 955.07582584 -946.87525672 952.36879907 -947.125 949.05078125 C-947.20878906 947.96410156 -947.29257812 946.87742187 -947.37890625 945.7578125 C-947.43949219 944.92636719 -947.50007812 944.09492187 -947.5625 943.23828125 C-948.67625 944.78515625 -948.67625 944.78515625 -949.8125 946.36328125 C-954.75849419 952.19884274 -963.48031158 956.73783954 -971.13110352 957.49121094 C-974.46177813 957.67508224 -977.79264893 957.83772875 -981.125 957.98828125 C-982.26775391 958.05660156 -983.41050781 958.12492188 -984.58789062 958.1953125 C-1002.19678098 958.98061464 -1015.44309872 950.39393003 -1028.1875 938.86328125 C-1035.12851623 931.19163174 -1043.11246381 922.04864114 -1045.875 911.92578125 C-1047.39483811 907.37547806 -1050.68056478 906.04831931 -1054.734375 903.85546875 C-1069.35436297 895.49542038 -1074.89889164 884.12882745 -1080.78710938 869.17041016 C-1082.03300284 866.06587588 -1083.42197697 863.03079365 -1084.8359375 860 C-1086.18134078 856.73775872 -1086.68879167 853.69656178 -1086.72363281 850.17919922 C-1086.73804413 848.99679153 -1086.73804413 848.99679153 -1086.75274658 847.79049683 C-1086.75699646 846.94568756 -1086.76124634 846.1008783 -1086.765625 845.23046875 C-1086.77417511 843.90947678 -1086.77417511 843.90947678 -1086.78289795 842.5617981 C-1086.79233575 840.69746089 -1086.79887708 838.8331071 -1086.80273438 836.96875 C-1086.81239417 834.14422646 -1086.84340991 831.32044524 -1086.875 828.49609375 C-1086.98554543 809.76030606 -1086.98554543 809.76030606 -1082.49487305 801.20410156 C-1081.0650658 798.18948833 -1080.96582658 795.1676761 -1080.625 791.86328125 C-1079.26714276 780.07997859 -1076.97296467 769.6120701 -1072.04296875 758.75390625 C-1070.07966408 754.09170518 -1068.80198598 749.33717815 -1067.484375 744.4609375 C-1066.45354041 740.85738439 -1065.13570448 737.48722673 -1063.6796875 734.0390625 C-1062.80120765 731.83671965 -1062.00993832 729.65225707 -1061.2578125 727.40625 C-1058.54309017 719.31641492 -1055.48747083 711.74477806 -1051.51782227 704.18676758 C-1049.17161442 699.65736798 -1047.38924099 695.12496863 -1045.75 690.30078125 C-1042.76958782 681.72879933 -1037.93381879 674.63973247 -1032.859375 667.17773438 C-1028.91544644 661.27966049 -1025.29245132 655.16973338 -1022.5625 648.61328125 C-1020.29686562 643.2918963 -1016.96184354 638.88728823 -1013.5625 634.23828125 C-1012.76184481 633.09678624 -1011.96380261 631.95345534 -1011.16796875 630.80859375 C-1006.81982878 624.5794033 -1002.40132127 618.63878548 -997.22265625 613.05859375 C-995.43053536 611.16337283 -995.43053536 611.16337283 -993.625 608.55078125 C-991.57575157 606.25313907 -989.78255063 605.04067133 -987.1875 603.42578125 C-983.05990859 600.8077867 -980.48960284 597.99436406 -977.75390625 593.97265625 C-976.5625 592.23828125 -976.5625 592.23828125 -974.5625 590.23828125 C-974.77209908 587.95582313 -974.77209908 587.95582313 -975.4375 585.36328125 C-977.76976777 573.59453535 -977.27107761 562.91955533 -970.8671875 552.47265625 C-963.49901514 542.5092167 -953.68814786 538.5461729 -942.125 534.98828125 C-940.00006323 534.32033472 -937.87630319 533.64862969 -935.75390625 532.97265625 C-934.36473999 532.54291504 -934.36473999 532.54291504 -932.94750977 532.10449219 C-930.34955283 531.26772833 -930.34955283 531.26772833 -927.5625 529.23828125 C-926.30366558 526.08649906 -926.30366558 526.08649906 -925.25 522.36328125 C-923.71004545 517.29921154 -921.952394 512.9522522 -919.25 508.36328125 C-915.61533389 501.42013701 -915.98177973 495.00549044 -916.46679688 487.38867188 C-916.56086591 485.27499832 -916.51269199 483.21066497 -916.421875 481.09765625 C-916.19798648 473.82309541 -916.19798648 473.82309541 -919.83203125 467.87890625 C-921.74865553 466.56794573 -923.70528448 465.31378876 -925.6953125 464.1171875 C-932.50065859 459.65755335 -935.81097804 452.72017265 -937.97363281 445.09716797 C-939.05847728 439.830365 -938.99343882 434.59597685 -938.9375 429.23828125 C-938.95490234 427.57152344 -938.95490234 427.57152344 -938.97265625 425.87109375 C-938.91051837 408.26536027 -931.00401462 392.92113853 -918.6875 380.61328125 C-912.78323752 374.90974185 -906.75544476 370.22860363 -899.5625 366.23828125 C-897.37040917 364.89155878 -895.18309627 363.53703592 -893 362.17578125 C-891.8965625 361.50546875 -890.793125 360.83515625 -889.65625 360.14453125 C-887.82112003 359.0137946 -886.00120678 357.85660186 -884.21875 356.64453125 C-875.79687316 351.06948602 -866.0923078 348.33917208 -856.5625 345.23828125 C-855.34433594 344.83351563 -854.12617187 344.42875 -852.87109375 344.01171875 C-842.68305773 340.73654643 -832.44170964 338.53051878 -821.8125 337.30078125 C-816.31211797 336.62179218 -811.72398159 335.45282886 -806.69140625 333.15625 C-804.5625 332.23828125 -804.5625 332.23828125 -801 331.55078125 C-793.65203455 328.74519444 -789.01288936 322.5383285 -785.5625 315.67578125 C-782.0273811 308.6644621 -776.80854369 304.36069443 -770.3125 300.11328125 C-767.6360402 298.2884223 -766.07281091 296.40508139 -764.10546875 293.87109375 C-762.15151289 291.80336325 -759.99059823 290.37784673 -757.625 288.80078125 C-751.44689608 284.61797608 -747.66053312 280.02496937 -743.75 273.73828125 C-737.24868104 263.98630281 -727.90976485 260.42679389 -717.4140625 256.21484375 C-713.13527993 254.49627502 -708.96789061 252.60895497 -704.8125 250.61328125 C-699.96588466 248.29620787 -695.07360607 246.2274797 -690.0625 244.30078125 C-675.58161696 238.72810174 -675.58161696 238.72810174 -663.625 229.23828125 C-655.79987406 220.69418007 -643.31871251 216.93601886 -632.625 213.30078125 C-631.76173096 213.0061499 -630.89846191 212.71151855 -630.0090332 212.40795898 C-621.91138898 209.78357087 -614.99352749 208.85865857 -606.5625 210.23828125 C-602.44377769 210.37114326 -598.57908195 210.27399558 -594.5 209.73828125 C-582.61735589 208.31976491 -570.67321435 208.30202477 -559.75390625 213.51171875 C-555.30853065 214.9855866 -550.52722222 215.28212753 -545.890625 215.80859375 C-542.5625 216.23828125 -542.5625 216.23828125 -539.5625 217.23828125 C-531.01690617 217.77393801 -521.80368367 217.74804143 -513.5625 215.23828125 C-511.16538952 212.64374352 -511.16538952 212.64374352 -509.5625 209.23828125 C-502.3034713 200.58466084 -488.86474802 193.622617 -477.5625 192.23828125 C-475.56410753 192.1479284 -473.56292747 192.10817812 -471.5625 192.11328125 C-470.551875 192.11070312 -469.54125 192.108125 -468.5 192.10546875 C-465.74535256 192.23001398 -463.24411197 192.6171726 -460.5625 193.23828125 C-460.005625 192.10390625 -459.44875 190.96953125 -458.875 189.80078125 C-452.73382825 177.56456097 -447.00762121 168.20557292 -433.5625 163.23828125 C-432.5725 163.23828125 -431.5825 163.23828125 -430.5625 163.23828125 C-431.036875 162.18640625 -431.51125 161.13453125 -432 160.05078125 C-435.88946491 151.42631558 -435.6121545 141.49563934 -432.59765625 132.6484375 C-428.54889767 123.22170526 -421.90827289 115.81541072 -412.375 111.86328125 C-405.87402574 109.44773346 -399.97299061 109.09993099 -393.10546875 109.140625 C-391.75102409 109.14274742 -391.75102409 109.14274742 -390.36921692 109.14491272 C-387.49611037 109.15049302 -384.62308284 109.16304191 -381.75 109.17578125 C-379.79752717 109.1807988 -377.84505311 109.18536126 -375.89257812 109.18945312 C-371.11585515 109.200456 -366.33919096 109.21770707 -361.5625 109.23828125 C-361.24361816 108.14708984 -360.92473633 107.05589844 -360.59619141 105.93164062 C-360.16095335 104.4816292 -359.72521724 103.03176721 -359.2890625 101.58203125 C-359.08095947 100.86499023 -358.87285645 100.14794922 -358.65844727 99.40917969 C-355.18645257 87.97971314 -347.29627241 81.61755772 -337.5625 75.23828125 C-336.54349609 74.54798828 -336.54349609 74.54798828 -335.50390625 73.84375 C-330.88645861 70.81984978 -326.00634134 68.40624195 -321.05078125 65.98828125 C-318.43377015 64.67537983 -315.86149046 63.32793491 -313.29296875 61.92578125 C-312.18103149 61.3220166 -312.18103149 61.3220166 -311.04663086 60.70605469 C-309.59428493 59.91441426 -308.1456352 59.11594133 -306.70141602 58.30957031 C-300.02264695 54.68573874 -294.01405173 53.08800432 -286.42407227 53.0637207 C-277.08372537 53.00648422 -271.27443637 50.65328117 -263.5625 45.23828125 C-261.77879176 44.16247429 -259.98744807 43.09919082 -258.1875 42.05078125 C-255.63763095 40.5304985 -253.1686646 38.96833088 -250.71875 37.2890625 C-240.18790099 30.44661729 -229.09339584 26.03176231 -216.40625 26.328125 C-210.93689489 26.36399522 -205.78435842 25.29726895 -200.4375 24.23828125 C-192.3262634 22.71410038 -184.9065524 21.97770626 -176.65234375 22.21484375 C-170.49718711 22.26153268 -165.46568753 20.6627218 -159.875 18.23828125 C-155.74658342 16.48917018 -151.94875869 15.77404574 -147.5 15.23828125 C-142.29449198 14.61022539 -138.16504305 13.57426918 -133.52734375 11.140625 C-129.21132749 9.15851813 -124.8591159 9.11864433 -120.17431641 9.140625 C-118.90173981 9.14392822 -117.62916321 9.14723145 -116.31802368 9.15063477 C-115.64197712 9.15475372 -114.96593056 9.15887268 -114.26939774 9.16311646 C-112.13095349 9.17598042 -109.99257205 9.182423 -107.85409546 9.18725586 C-102.53473691 9.20057162 -97.21543703 9.22456996 -91.89611816 9.24865723 C-87.40907477 9.26861033 -82.92205532 9.28416705 -78.43497849 9.29421997 C-76.35542206 9.30057835 -74.27596652 9.31309167 -72.19644165 9.32592773 C-59.53465858 9.35799947 -47.7628378 9.2367832 -35.69921875 5.08203125 C-31.45763797 3.941083 -27.57961122 4.12075709 -23.22265625 4.29296875 C-19.36610851 4.21368583 -16.9749482 2.97932625 -13.5625 1.23828125 C-9.09474436 0.0307934 -4.59718509 0.04317808 0 0 Z " fill="#E26D50" transform="translate(1086.5625,-0.23828125)"/>
<path d="M0 0 C0.82773926 -0.00807175 1.65547852 -0.01614349 2.50830078 -0.02445984 C4.25990737 -0.03826004 6.01154039 -0.04900028 7.76318359 -0.05688477 C9.53182003 -0.06834845 11.30042342 -0.08871023 13.06884766 -0.1184082 C23.88362652 -0.29970109 33.25787972 0.08786874 43.4375 4.23828125 C44.51572021 4.66210083 44.51572021 4.66210083 45.61572266 5.09448242 C60.29612549 11.24417399 69.30816305 21.91966564 75.35302734 36.43701172 C76.97294512 40.71535198 78.3931178 45.05363385 79.80859375 49.40283203 C80.87967317 52.52875403 82.24571431 55.50178189 83.67578125 58.4765625 C85.4509457 62.58219926 85.60710002 66.48033876 85.8125 70.92578125 C86.14597411 76.11614438 86.92566438 80.40847188 88.73828125 85.25390625 C92.11507509 94.83720943 91.25305254 107.09154155 89.125 116.80078125 C88.50834347 119.64486643 88.50834347 119.64486643 88.4375 122.23828125 C90.54450146 125.51675889 90.54450146 125.51675889 93.4375 128.23828125 C96.40917307 133.76171706 96.9430218 138.73411068 95.4453125 144.80078125 C93.51764204 149.46305398 90.00639587 153.95383331 85.4375 156.23828125 C85.46070313 156.85574219 85.48390625 157.47320312 85.5078125 158.109375 C85.77159627 170.48837032 82.81751228 180.21740619 74.3515625 189.421875 C70.10674903 193.45011636 65.26830639 195.93009704 59.9375 198.23828125 C51.02602179 202.11883889 46.47257552 205.90075435 41.4375 214.23828125 C30.99980254 230.85925427 30.99980254 230.85925427 24.4375 235.23828125 C23.51195312 235.90730469 22.58640625 236.57632813 21.6328125 237.265625 C11.69905958 244.21804503 0.74043685 248.95176266 -10.5625 253.23828125 C-11.27744629 253.53774658 -11.99239258 253.83721191 -12.72900391 254.14575195 C-20.78519422 257.11637299 -29.27834213 256.72531873 -37.74755859 256.68432617 C-40.42493788 256.67582116 -43.10017441 256.70463838 -45.77734375 256.73632812 C-54.49878241 256.77031868 -61.82932254 256.37794945 -70.04931641 253.13549805 C-73.84158474 251.78164278 -77.32989836 251.75444562 -81.3125 251.92578125 C-82.34697266 251.9402832 -82.34697266 251.9402832 -83.40234375 251.95507812 C-85.46145321 251.99950544 -87.50709439 252.10944819 -89.5625 252.23828125 C-90.23861328 252.26100098 -90.91472656 252.2837207 -91.61132812 252.30712891 C-96.4212066 252.63465432 -98.9949496 254.00195835 -102.74902344 256.95507812 C-105.93513159 259.20954561 -109.49648822 260.30652213 -113.1875 261.48828125 C-113.97439209 261.74351562 -114.76128418 261.99875 -115.57202148 262.26171875 C-132.49335183 267.49316838 -145.20112112 263.86033863 -160.58837891 256.28320312 C-166.67764608 253.06009362 -170.03053658 249.27311919 -173.25 243.30078125 C-175.07974392 240.44853337 -175.95536876 239.4243376 -179.2265625 238.421875 C-186.90952496 237.97386106 -192.74261408 240.33443902 -199.54223633 243.45385742 C-208.31374467 247.31347684 -217.56720931 248.44532612 -226.98681641 249.81079102 C-229.36129871 250.20488756 -231.63286131 250.74387578 -233.9609375 251.34765625 C-240.70184637 252.91138511 -247.63322263 252.28685242 -254.5 252.07226562 C-260.79532089 251.96175454 -264.96420942 252.3671785 -270.5625 255.23828125 C-275.14613072 256.49389095 -279.73219368 256.41689242 -284.44921875 256.44140625 C-285.30626907 256.44710632 -286.1633194 256.4528064 -287.04634094 256.4586792 C-288.85762305 256.46810422 -290.6689221 256.47465323 -292.48022461 256.47851562 C-295.22345693 256.48818766 -297.96592868 256.5192207 -300.70898438 256.55078125 C-317.71377551 256.66125555 -317.71377551 256.66125555 -325.5625 253.23828125 C-326.69953369 252.76003906 -327.83656738 252.28179687 -329.00805664 251.7890625 C-333.62127236 249.82098696 -338.19514043 247.76651003 -342.76635742 245.703125 C-344.73030377 244.81931327 -346.69880563 243.94633204 -348.66796875 243.07421875 C-350.40276489 242.29377197 -350.40276489 242.29377197 -352.17260742 241.49755859 C-357.06230811 239.68113251 -361.90182121 239.16887817 -367.0859375 238.9921875 C-367.88 238.95931641 -368.6740625 238.92644531 -369.4921875 238.89257812 C-371.11445191 238.83167842 -372.73685459 238.77435098 -374.359375 238.72070312 C-380.4833595 238.45810508 -387.00002931 238.0195166 -392.5625 235.23828125 C-392.645 236.45515625 -392.7275 237.67203125 -392.8125 238.92578125 C-394.12225964 250.18263434 -397.65862966 261.44965151 -406.59375 268.94140625 C-408.85850928 270.50047967 -411.17879773 271.8682952 -413.5625 273.23828125 C-414.57441406 273.89441406 -415.58632813 274.55054688 -416.62890625 275.2265625 C-417.67949219 275.89042969 -418.73007812 276.55429687 -419.8125 277.23828125 C-420.78703125 277.85703125 -421.7615625 278.47578125 -422.765625 279.11328125 C-425.5625 280.23828125 -425.5625 280.23828125 -428.20703125 279.609375 C-430.41505028 278.32411019 -432.14616887 277.04791706 -434 275.30078125 C-436.96667835 272.63987896 -439.89014685 270.85053385 -443.5625 269.23828125 C-443.14912119 264.82890728 -441.2920853 262.0285552 -438.81640625 258.49609375 C-432.41183425 246.96387377 -435.14253571 229.80444998 -437.5625 217.23828125 C-440.17907817 209.25567362 -444.92574001 202.90916346 -452.234375 198.69921875 C-454.65260612 197.47644087 -457.07946732 196.32242228 -459.5625 195.23828125 C-458.03989017 185.00403036 -451.86422878 174.39045525 -443.5625 168.23828125 C-435.30697174 163.23828125 -435.30697174 163.23828125 -430.5625 163.23828125 C-431.2740625 161.66046875 -431.2740625 161.66046875 -432 160.05078125 C-435.88946491 151.42631558 -435.6121545 141.49563934 -432.59765625 132.6484375 C-428.54889767 123.22170526 -421.90827289 115.81541072 -412.375 111.86328125 C-405.87402574 109.44773346 -399.97299061 109.09993099 -393.10546875 109.140625 C-391.75102409 109.14274742 -391.75102409 109.14274742 -390.36921692 109.14491272 C-387.49611037 109.15049302 -384.62308284 109.16304191 -381.75 109.17578125 C-379.79752717 109.1807988 -377.84505311 109.18536126 -375.89257812 109.18945312 C-371.11585515 109.200456 -366.33919096 109.21770707 -361.5625 109.23828125 C-361.08417725 107.60149414 -361.08417725 107.60149414 -360.59619141 105.93164062 C-360.16095335 104.4816292 -359.72521724 103.03176721 -359.2890625 101.58203125 C-358.97690796 100.50646973 -358.97690796 100.50646973 -358.65844727 99.40917969 C-355.18645257 87.97971314 -347.29627241 81.61755772 -337.5625 75.23828125 C-336.88316406 74.77808594 -336.20382812 74.31789063 -335.50390625 73.84375 C-330.88645861 70.81984978 -326.00634134 68.40624195 -321.05078125 65.98828125 C-318.43377015 64.67537983 -315.86149046 63.32793491 -313.29296875 61.92578125 C-312.55167725 61.52327148 -311.81038574 61.12076172 -311.04663086 60.70605469 C-309.59428493 59.91441426 -308.1456352 59.11594133 -306.70141602 58.30957031 C-300.02264695 54.68573874 -294.01405173 53.08800432 -286.42407227 53.0637207 C-277.08372537 53.00648422 -271.27443637 50.65328117 -263.5625 45.23828125 C-261.77879176 44.16247429 -259.98744807 43.09919082 -258.1875 42.05078125 C-255.63763095 40.5304985 -253.1686646 38.96833088 -250.71875 37.2890625 C-240.18790099 30.44661729 -229.09339584 26.03176231 -216.40625 26.328125 C-210.93689489 26.36399522 -205.78435842 25.29726895 -200.4375 24.23828125 C-192.3262634 22.71410038 -184.9065524 21.97770626 -176.65234375 22.21484375 C-170.49718711 22.26153268 -165.46568753 20.6627218 -159.875 18.23828125 C-155.74658342 16.48917018 -151.94875869 15.77404574 -147.5 15.23828125 C-142.29449198 14.61022539 -138.16504305 13.57426918 -133.52734375 11.140625 C-129.21132749 9.15851813 -124.8591159 9.11864433 -120.17431641 9.140625 C-118.90173981 9.14392822 -117.62916321 9.14723145 -116.31802368 9.15063477 C-115.64197712 9.15475372 -114.96593056 9.15887268 -114.26939774 9.16311646 C-112.13095349 9.17598042 -109.99257205 9.182423 -107.85409546 9.18725586 C-102.53473691 9.20057162 -97.21543703 9.22456996 -91.89611816 9.24865723 C-87.40907477 9.26861033 -82.92205532 9.28416705 -78.43497849 9.29421997 C-76.35542206 9.30057835 -74.27596652 9.31309167 -72.19644165 9.32592773 C-59.53465858 9.35799947 -47.7628378 9.2367832 -35.69921875 5.08203125 C-31.45763797 3.941083 -27.57961122 4.12075709 -23.22265625 4.29296875 C-19.36610851 4.21368583 -16.9749482 2.97932625 -13.5625 1.23828125 C-9.09474436 0.0307934 -4.59718509 0.04317808 0 0 Z " fill="#1A501A" transform="translate(1086.5625,-0.23828125)"/>
<path d="M0 0 C6.14681798 0.3073409 9.38530697 3.34387372 14 7 C19.51096129 11.12309052 24.73619382 13.8236119 31.26171875 16.0078125 C33.90826249 16.96675987 36.26979855 18.11308065 38.75 19.4375 C48.77702378 24.54590486 58.12001028 27.3230141 69.28833008 27.6159668 C74.58283408 27.80637918 78.60498748 29.15333188 83.44921875 31.1484375 C87.00099213 32.33417501 90.13299208 32.22455777 93.84375 32.0859375 C102.99572983 31.83674993 112.40024696 31.94759878 120.96875 35.375 C124.13381672 36.34886668 127.17554895 36.08730771 130.45703125 35.98046875 C136.00355902 36.02306881 141.36087911 37.54932876 146.6796875 39.01171875 C151.41592317 40.2004818 156.14259236 40.56323189 161 40.9375 C172.49032808 41.93937597 183.5777019 43.44115519 194.5625 47.125 C200.59231389 49.10996979 206.26058356 49.45824456 212.57421875 49.72265625 C216.3211292 50.02599792 219.1798728 50.95682503 222.640625 52.31640625 C225.71322931 53.20664757 228.6193488 53.29457511 231.8125 53.4375 C242.75964107 54.05091739 251.29924941 57.44197157 260 64 C260.7115625 64.52078125 261.423125 65.0415625 262.15625 65.578125 C264.9614312 67.65060962 267.70681086 69.75310388 270.375 72 C273.55677469 74.42420928 276.92853369 76.36346053 280.40234375 78.33984375 C283 80 283 80 285.64453125 82.3984375 C289.78252974 85.93461745 294.76949317 87.63121617 299.75 89.6875 C307.66106965 93.09963713 313.29806288 96.1722287 318.95703125 102.73828125 C321.66863615 105.74023008 324.73615795 107.68145163 328.1875 109.74609375 C330 111 330 111 332 114 C321.13361684 113.34102379 312.30043226 111.4276137 302.48828125 106.65625 C295.84785665 103.50334963 290.56399463 102.70214026 283.3137207 102.70947266 C282.35515671 102.70275543 281.39659271 102.69603821 280.40898132 102.68911743 C277.2478615 102.67015962 274.08695435 102.66621398 270.92578125 102.6640625 C268.718683 102.65763181 266.51158561 102.65090325 264.30448914 102.64389038 C259.67863999 102.63192226 255.05286549 102.62820896 250.42700195 102.62939453 C244.52037397 102.62959741 238.6142288 102.60232518 232.70771503 102.56785011 C228.14786107 102.54552971 223.58812221 102.54155861 219.02821922 102.54261398 C216.85187305 102.54026462 214.67552338 102.53147886 212.49923134 102.51594925 C197.88086064 102.1335411 197.88086064 102.1335411 183.99519348 106.10572815 C180.83346738 107.5228552 177.79334947 107.36007874 174.375 107.3125 C165.74881226 107.51731894 159.03396764 110.49328866 151.27539062 114.01074219 C147.23033047 115.76938851 143.0842226 117.25087201 138.9375 118.75 C138.1643042 119.03117676 137.3911084 119.31235352 136.59448242 119.60205078 C135.1104063 120.14168561 133.62499874 120.67767505 132.13818359 121.2097168 C130.72408463 121.73237475 129.32001512 122.2831 127.92822266 122.86254883 C123.30422658 124.76171005 119.5758349 125.33391831 114.5 125.1875 C113.2728125 125.16042969 112.045625 125.13335937 110.78125 125.10546875 C109.8634375 125.07066406 108.945625 125.03585937 108 125 C108.56267578 124.38125 108.56267578 124.38125 109.13671875 123.75 C119.10231021 112.50419402 123.4643585 101.05053861 123.27734375 85.90234375 C122.39283395 76.64613557 117.99262948 68.39351394 111.046875 62.28125 C105.55550001 58.00552291 100.64739396 55.16283208 93.6875 54.1875 C89.31215123 53.57364301 85.58440621 52.4991664 81.51634216 50.78346252 C70.21353909 46.1468892 59.48793999 46.27460553 47.4375 46.5625 C45.48245009 46.58410545 43.52736826 46.60299623 41.57226562 46.61914062 C36.04550467 46.67804979 30.52393682 46.81653417 25 47 C24.19904907 47.02523743 23.39809814 47.05047485 22.57287598 47.07647705 C20.38468861 47.15269325 18.1986203 47.24898373 16.01171875 47.35546875 C14.80604248 47.4124292 13.60036621 47.46938965 12.3581543 47.52807617 C5.40668754 48.50497077 -0.56044967 51.8044047 -5.734375 56.4609375 C-9.5566105 59.72553284 -13.93602674 61.21582485 -18.625 62.875 C-19.470625 63.1946875 -20.31625 63.514375 -21.1875 63.84375 C-28.15362076 66.3708916 -28.15362076 66.3708916 -32 65 C-34.0703125 63.66015625 -34.0703125 63.66015625 -36.125 62.0625 C-36.80820312 61.53785156 -37.49140625 61.01320313 -38.1953125 60.47265625 C-40 59 -40 59 -42 57 C-38.11392584 49.72684174 -33.55990026 44.38242885 -27.625 38.75 C-21.51991824 32.9041384 -17.20676331 27.10148624 -13.13671875 19.734375 C-10.1927904 14.4266165 -6.54877953 9.61912527 -2.96875 4.73046875 C-1.03294068 2.19951316 -1.03294068 2.19951316 0 0 Z " fill="#FAC052" transform="translate(641,269)"/>
<path d="M0 0 C5.22078568 0.3740281 10.06864648 0.5319813 15.26171875 -0.234375 C26.34294082 -1.47986773 37.31356422 -1.05491394 47.43359375 3.7734375 C51.87896935 5.24730535 56.66027778 5.54384628 61.296875 6.0703125 C64.625 6.5 64.625 6.5 67.625 7.5 C69.2497656 7.71282313 70.87980348 7.88680032 72.51171875 8.03515625 C73.9184082 8.16567383 73.9184082 8.16567383 75.35351562 8.29882812 C76.32998047 8.38583984 77.30644531 8.47285156 78.3125 8.5625 C79.30056641 8.65337891 80.28863281 8.74425781 81.30664062 8.83789062 C83.74582148 9.06177679 86.18525587 9.28235239 88.625 9.5 C88.625 12.5 88.625 12.5 87.41015625 13.9453125 C86.84167969 14.49960938 86.27320313 15.05390625 85.6875 15.625 C77.9905996 24.08846162 73.15982764 35.34533531 69.57421875 46.0859375 C67.91062743 50.31679938 65.27688566 53.83724704 62.625 57.5 C59.55062945 61.86804133 56.71146621 66.03912962 54.6875 71 C52.88392253 75.33610084 50.32689361 78.55221162 47.359375 82.16015625 C45.00573405 85.33545114 43.43985897 88.72414127 41.86328125 92.3359375 C40.45784984 94.79211731 38.9754907 95.96599555 36.625 97.5 C35.64660156 96.88511719 34.66820312 96.27023437 33.66015625 95.63671875 C23.85358019 89.55333432 15.95465402 85.31858435 4.203125 84.90625 C1.0003666 84.40157292 -0.80083582 83.47024214 -3.375 81.5 C-4.89453125 79.046875 -4.89453125 79.046875 -6.1875 76.25 C-10.73206797 67.45143745 -17.7708913 62.04034812 -27.12890625 58.9140625 C-36.9832423 57.09743707 -48.22319681 57.43303162 -56.71484375 63.046875 C-58.38589023 64.2401025 -60.04588601 65.44893573 -61.6953125 66.671875 C-64.55181511 68.62062605 -67.43953073 70.08278887 -70.5625 71.5625 C-75.59028393 73.98661011 -79.3270952 76.71506813 -83.375 80.5 C-88.12165142 84.83143738 -92.18459927 87.674582 -98.4375 89.375 C-113.02521433 93.39860665 -124.24297014 101.12910099 -132.25 114 C-132.61867188 114.6496875 -132.98734375 115.299375 -133.3671875 115.96875 C-134.375 117.5 -134.375 117.5 -136.375 118.5 C-138.49910455 118.61951673 -140.62667754 118.67927669 -142.75390625 118.7109375 C-144.06037109 118.73744385 -145.36683594 118.7639502 -146.71289062 118.79125977 C-147.40358643 118.80456329 -148.09428223 118.81786682 -148.8059082 118.83157349 C-159.74146246 119.05436145 -170.34429544 119.50591393 -181.0625 121.87890625 C-184.56963802 122.53649463 -187.81503446 122.60443776 -191.375 122.5 C-190.99988281 122.06429687 -190.62476563 121.62859375 -190.23828125 121.1796875 C-189.16273095 119.92803954 -188.09000665 118.67395979 -187.01953125 117.41796875 C-185.65493776 115.82648323 -184.26778005 114.25437756 -182.875 112.6875 C-180.7386449 110.1510022 -179.18228518 107.45279054 -177.5625 104.5625 C-173.91183013 98.32163763 -169.20862232 94.33352032 -163.1875 90.4375 C-160.49042596 88.57951566 -158.90633113 86.69387472 -156.91796875 84.1328125 C-154.96401289 82.065082 -152.80309823 80.63956548 -150.4375 79.0625 C-144.25939608 74.87969483 -140.47303312 70.28668812 -136.5625 64 C-130.06118104 54.24802156 -120.72226485 50.68851264 -110.2265625 46.4765625 C-105.94777993 44.75799377 -101.78039061 42.87067372 -97.625 40.875 C-92.77838466 38.55792662 -87.88610607 36.48919845 -82.875 34.5625 C-68.39411696 28.98982049 -68.39411696 28.98982049 -56.4375 19.5 C-44.14155731 6.07430189 -17.56150068 -1.46575994 0 0 Z " fill="#FAC052" transform="translate(479.375,209.5)"/>
<path d="M0 0 C8.31139019 5.85156545 13.38055663 13.25267494 15.99609375 23.109375 C17.62804713 36.38468807 13.80061116 46.53259658 5.99609375 57.109375 C-0.32144182 64.94490498 -5.6634175 70.96559204 -15.48779297 73.66821289 C-21.56050263 75.37354272 -25.58966589 76.80432058 -29.00390625 82.484375 C-29.50148438 83.43957031 -29.9990625 84.39476562 -30.51171875 85.37890625 C-32.39008012 88.81601252 -34.75788707 91.14385517 -37.62109375 93.76953125 C-40.16674032 96.23607581 -40.01098768 97.37610868 -40.109375 101.08203125 C-40.12000977 101.8910791 -40.13064453 102.70012695 -40.14160156 103.53369141 C-40.35313056 114.73850661 -42.54968738 123.87723835 -47.00390625 134.109375 C-47.42027344 135.1096875 -47.83664062 136.11 -48.265625 137.140625 C-53.03589737 147.66375077 -60.41468993 152.81021088 -71.00390625 157.109375 C-81.3660025 159.74407854 -90.76364182 158.42877047 -100.00390625 153.109375 C-108.45264326 147.26208526 -113.46457512 139.915467 -116.63671875 130.1640625 C-117.15230495 127.27897379 -117.25420165 124.47703886 -117.31640625 121.546875 C-117.35378906 120.41121094 -117.39117187 119.27554688 -117.4296875 118.10546875 C-117.28775721 114.73256259 -116.28329693 112.15877744 -114.98828125 109.0546875 C-112.34481973 102.21523669 -112.66808586 95.78424912 -112.94140625 88.546875 C-113.43882174 74.15152223 -112.03121422 64.0243463 -102.00390625 53.109375 C-99.25831035 50.96267679 -96.43097375 49.01951698 -93.54296875 47.0703125 C-90.28799135 44.55646842 -88.48089313 41.8189486 -86.3828125 38.328125 C-84.02469819 34.53376543 -81.03410748 31.37315424 -78.00390625 28.109375 C-77.40578125 27.41199219 -76.80765625 26.71460938 -76.19140625 25.99609375 C-69.08938756 18.18664742 -60.04756995 13.3400899 -51.00390625 8.109375 C-47.88830331 6.29626718 -45.05878747 4.43136265 -42.25390625 2.171875 C-29.29357332 -7.4168584 -14.03326973 -8.11171661 0 0 Z " fill="#F7F7F7" transform="translate(318.00390625,494.890625)"/>
<path d="M0 0 C1.2684375 -0.02900391 2.536875 -0.05800781 3.84375 -0.08789062 C14.99140633 -0.16259141 24.10782001 1.94596676 32.80078125 9.1875 C39.71611974 16.27214056 44.17329074 24.71546231 44.125 34.6875 C43.91962278 45.34295323 41.00013728 54.11173164 33.6875 62.0625 C26.11770768 69.1705185 16.55753254 72.21461512 6.375 72.5 C-4.79121269 73.17854384 -14.08555037 78.01788909 -22.1328125 85.66796875 C-29.60732266 91.8381036 -38.23170454 93.0286776 -47.64453125 92.6640625 C-57.02446371 91.71659457 -65.04855712 87.90116607 -71.36328125 80.79296875 C-79.02857513 70.7734347 -81.55617071 61.97071858 -80.125 49.3125 C-77.80817391 40.10115763 -72.75672206 33.89554887 -66.125 27.3125 C-64.8565625 25.95125 -64.8565625 25.95125 -63.5625 24.5625 C-57.26144573 18.74614222 -50.8762628 15.00538927 -42.9375 11.8125 C-41.07877592 11.04323815 -39.22070122 10.27240536 -37.36328125 9.5 C-36.46818848 9.13003906 -35.5730957 8.76007813 -34.65087891 8.37890625 C-30.27204108 6.53019529 -25.99697626 4.47635948 -21.71875 2.40625 C-14.80622921 -0.5086684 -7.3718615 0.0551786 0 0 Z " fill="#F7F7F7" transform="translate(416.125,353.6875)"/>
<path d="M0 0 C8.37592624 5.76178365 13.47052556 13.25710224 16.06640625 23.109375 C17.84740625 39.30710133 11.97182165 49.50074312 2.08984375 61.84375 C0.25285811 63.90060651 -1.57227948 65.3775324 -3.74609375 67.046875 C-8.69900574 71.73085059 -8.45357857 79.09641209 -9.26953125 85.4921875 C-10.50346575 94.86933499 -14.4024942 103.65590518 -21.8984375 109.69140625 C-24.19318061 111.26411446 -26.54206365 112.68826821 -28.93359375 114.109375 C-29.94679688 114.76808594 -30.96 115.42679687 -32.00390625 116.10546875 C-33.57785156 117.09740234 -33.57785156 117.09740234 -35.18359375 118.109375 C-36.158125 118.728125 -37.13265625 119.346875 -38.13671875 119.984375 C-40.93359375 121.109375 -40.93359375 121.109375 -43.578125 120.48046875 C-45.78614403 119.19520394 -47.51726262 117.91901081 -49.37109375 116.171875 C-52.3377721 113.51097271 -55.2612406 111.7216276 -58.93359375 110.109375 C-58.52021494 105.70000103 -56.66317905 102.89964895 -54.1875 99.3671875 C-47.782928 87.83496752 -50.51362946 70.67554373 -52.93359375 58.109375 C-55.55017192 50.12676737 -60.29683376 43.78025721 -67.60546875 39.5703125 C-70.02369987 38.34753462 -72.45056107 37.19351603 -74.93359375 36.109375 C-73.4097331 25.86671674 -67.23239647 15.27377342 -58.93359375 9.109375 C-54.55506141 6.43131041 -50.25714789 4.47449338 -45.30859375 3.109375 C-41.67995102 2.0342216 -39.1845956 0.49370389 -36.12109375 -1.671875 C-24.57134362 -8.10673579 -10.96087147 -6.23485294 0 0 Z " fill="#86522D" transform="translate(701.93359375,158.890625)"/>
<path d="M0 0 C2.66886397 1.0433646 5.20736876 2.10839731 7.75 3.4375 C10.25859211 4.6435539 12.50826721 5.53537337 15.13671875 6.37109375 C18.3164603 7.412622 21.43271609 8.53588166 24.53515625 9.7890625 C25.28216797 10.09070313 26.02917969 10.39234375 26.79882812 10.703125 C28.31403168 11.32018805 29.82705356 11.94263427 31.33789062 12.5703125 C35.1003452 14.07919662 38.37307604 15.14336392 42.4296875 15.45703125 C46 16 46 16 47.41015625 17.78515625 C47.62542969 18.53667969 47.84070313 19.28820312 48.0625 20.0625 C50.68406732 27.34720919 55.78780911 32.48204299 62 37 C61.35026391 40.79915131 59.58721519 43.48396685 57.5 46.6875 C56.55640625 48.14736328 56.55640625 48.14736328 55.59375 49.63671875 C54 52 54 52 53 53 C50.89951764 53.12229938 48.79521609 53.17983336 46.69140625 53.2109375 C44.73364258 53.25347656 44.73364258 53.25347656 42.73632812 53.296875 C40.66317699 53.33775883 38.59023004 53.37464258 36.5168457 53.40136719 C28.99060788 53.5067436 22.11896697 53.76880654 14.98217773 56.29858398 C9.65211463 58.18468711 4.1965463 58.08411964 -1.375 57.9375 C-4.63583527 58.01513894 -7.78055258 58.49498864 -11 59 C-10.30554238 56.57861681 -9.59477386 54.16387573 -8.875 51.75 C-8.68679687 51.08742188 -8.49859375 50.42484375 -8.3046875 49.7421875 C-6.95326974 45.26561616 -5.17301547 41.52929147 -2.84375 37.46875 C0.99223034 29.99563064 0.67594511 22.89065983 0.375 14.75 C0.34481653 13.31125469 0.31745571 11.87244729 0.29296875 10.43359375 C0.22773981 6.95441009 0.12470321 3.47762092 0 0 Z " fill="#FAC052" transform="translate(170,471)"/>
<path d="M0 0 C0.66 0.33 1.32 0.66 2 1 C2.65528448 7.88048699 1.79504376 11.04201633 -2.28125 16.55078125 C-5.43629914 21.04672627 -7.65822984 26.04600173 -10 31 C-10.40605469 31.85464844 -10.81210938 32.70929687 -11.23046875 33.58984375 C-14.17384272 39.97600893 -15.07400235 45.30872182 -15.375 52.375 C-15.67493882 57.92821029 -16.47310523 62.04728625 -19 67 C-19.46293541 68.85174164 -19.92298505 70.70432345 -20.359375 72.5625 C-21.69429984 77.64172622 -23.48962837 82.58809575 -25.17578125 87.55957031 C-26.84183194 92.49258059 -28.48052161 97.43476634 -30.125 102.375 C-30.79417473 104.38284453 -31.4634424 106.39065809 -32.1328125 108.3984375 C-32.44702148 109.35008789 -32.76123047 110.30173828 -33.08496094 111.28222656 C-33.6651012 113.00531124 -34.26503772 114.72195926 -34.89160156 116.42871094 C-36.74540231 121.5570441 -37.41544405 126.06399167 -37.5 131.5 C-37.72249442 137.86027154 -38.51802172 143.06483454 -41 149 C-43.35171131 148.40138258 -45.6859378 147.73075648 -48 147 C-49.54130495 143.9173901 -49.22561558 140.69279069 -49.25 137.3125 C-49.2809375 136.26932617 -49.2809375 136.26932617 -49.3125 135.20507812 C-49.35040596 130.13041741 -48.18468925 126.65073998 -46 122 C-44.91473004 117.93981355 -44.80603056 113.93956433 -44.625 109.75 C-44.28446395 103.72170987 -43.34891603 98.56322217 -41 93 C-40.31047873 91.31332489 -39.62304943 89.62579336 -38.9375 87.9375 C-38.45603516 86.80634766 -38.45603516 86.80634766 -37.96484375 85.65234375 C-36.95623893 82.87970134 -36.26188441 80.08531349 -35.56958008 77.2199707 C-31.5219297 61.44402348 -25.23006245 46.28990344 -17.875 31.79296875 C-16.44283649 28.95330427 -15.24258711 26.12913966 -14.1875 23.125 C-12.33168789 18.36126182 -9.76563908 14.5137584 -6.75 10.40625 C-4.30731853 7.04756298 -2.16488683 3.54254208 0 0 Z " fill="#FABE52" transform="translate(121,696)"/>
<path d="M0 0 C-1.875 5.75 -1.875 5.75 -3 8 C-14.55 8 -26.1 8 -38 8 C-33.49604158 4.62203118 -33.49604158 4.62203118 -29.62109375 3.8671875 C-28.36993774 3.6182373 -28.36993774 3.6182373 -27.09350586 3.36425781 C-26.21702393 3.20280273 -25.34054199 3.04134766 -24.4375 2.875 C-23.54232666 2.70323242 -22.64715332 2.53146484 -21.72485352 2.35449219 C-14.50679465 1.00678973 -7.35407547 0 0 0 Z " fill="#FABD52" transform="translate(289,407)"/>
<path d="M0 0 C-0.66 1.32 -1.32 2.64 -2 4 C-3.4800841 3.88637738 -4.95910074 3.75877092 -6.4375 3.625 C-7.26121094 3.55539063 -8.08492187 3.48578125 -8.93359375 3.4140625 C-9.61550781 3.27742187 -10.29742188 3.14078125 -11 3 C-11.33 2.34 -11.66 1.68 -12 1 C-7.95858806 0.36605303 -4.0934693 -0.12404452 0 0 Z " fill="#CEA343" transform="translate(572,216)"/>
</svg>
